<svg width="166" height="34" viewBox="0 0 166 34" fill="none" xmlns="http://www.w3.org/2000/svg">
<g filter="url(#filter0_d_31_1024)">
<path d="M6.368 7.648V22.816H14V25H4.016V7.648H6.368ZM21.0007 25.288C17.5447 25.288 15.1687 22.792 15.1687 19.144C15.1687 15.472 17.4967 12.928 20.9047 12.928C24.2407 12.928 26.4247 15.232 26.4247 18.712V19.552L17.3527 19.576C17.5207 22.048 18.8167 23.416 21.0487 23.416C22.8007 23.416 23.9527 22.696 24.3367 21.352H26.4487C25.8727 23.872 23.9047 25.288 21.0007 25.288ZM20.9047 14.824C18.9367 14.824 17.6887 16 17.4007 18.064H24.1687C24.1687 16.12 22.8967 14.824 20.9047 14.824ZM32.1393 25H29.8833V15.16H27.5793V13.264H29.8833V9.592H32.1393V13.264H34.4433V15.16H32.1393V25ZM39.6359 9.4C39.6359 11.152 38.4119 12.568 36.7319 12.784V11.776C37.6679 11.608 38.3399 10.984 38.3399 10.216C38.1719 10.312 37.9559 10.36 37.6679 10.36C36.9479 10.36 36.3239 9.832 36.3239 8.896C36.3239 7.984 36.9479 7.312 37.9079 7.312C38.8679 7.312 39.6359 8.104 39.6359 9.4ZM40.6173 21.592H42.7773C42.7773 22.792 43.6893 23.512 45.1773 23.512C46.7613 23.512 47.6733 22.864 47.6733 21.784C47.6733 20.992 47.2893 20.512 46.0653 20.2L44.0013 19.72C41.9133 19.216 40.9293 18.184 40.9293 16.456C40.9293 14.296 42.7533 12.928 45.3453 12.928C47.9133 12.928 49.5933 14.368 49.6413 16.6H47.4813C47.4333 15.424 46.6413 14.68 45.2733 14.68C43.8573 14.68 43.0653 15.304 43.0653 16.384C43.0653 17.176 43.6413 17.704 44.7933 17.992L46.8573 18.496C48.8493 18.976 49.8333 19.888 49.8333 21.64C49.8333 23.872 47.9133 25.288 45.1293 25.288C42.3693 25.288 40.6173 23.824 40.6173 21.592ZM66.7216 9.568C62.9776 9.568 60.7216 12.328 60.7216 16.432C60.7216 20.632 63.1696 23.056 66.7456 23.056C69.6976 23.056 72.0736 21.544 72.0736 18.04V17.536H66.2656V15.448H74.2816V25.024H72.3136L72.1456 22.672C71.2096 24.184 69.0976 25.288 66.5536 25.288C61.6336 25.288 58.2496 21.736 58.2496 16.384C58.2496 11.104 61.6576 7.36 66.7696 7.36C70.5616 7.36 73.5136 9.544 74.0896 12.88H71.5936C70.9456 10.672 69.0256 9.568 66.7216 9.568ZM76.4812 19.12C76.4812 15.496 79.0732 12.952 82.6012 12.952C86.1052 12.952 88.6972 15.496 88.6972 19.12C88.6972 22.744 86.1052 25.288 82.6012 25.288C79.0732 25.288 76.4812 22.744 76.4812 19.12ZM78.7612 19.12C78.7612 21.568 80.3212 23.272 82.6012 23.272C84.8572 23.272 86.4412 21.568 86.4412 19.12C86.4412 16.672 84.8572 14.968 82.6012 14.968C80.3212 14.968 78.7612 16.672 78.7612 19.12ZM93.9545 19.792H92.2025C91.9625 17.992 91.7945 14.8 91.7945 11.68V7.648H94.3865V11.68C94.3865 14.848 94.1945 18.016 93.9545 19.792ZM93.0905 25.336C92.1305 25.336 91.3625 24.568 91.3625 23.632C91.3625 22.696 92.1305 21.928 93.0905 21.928C94.0025 21.928 94.7945 22.696 94.7945 23.632C94.7945 24.568 94.0025 25.336 93.0905 25.336Z" fill="white"/>
<path d="M161.707 16.7071C162.098 16.3166 162.098 15.6834 161.707 15.2929L155.343 8.92893C154.953 8.53841 154.319 8.53841 153.929 8.92893C153.538 9.31946 153.538 9.95262 153.929 10.3431L159.586 16L153.929 21.6569C153.538 22.0474 153.538 22.6805 153.929 23.0711C154.319 23.4616 154.953 23.4616 155.343 23.0711L161.707 16.7071ZM113 17H161V15H113V17Z" fill="white"/>
</g>
<defs>
<filter id="filter0_d_31_1024" x="0.0159912" y="7.312" width="165.984" height="26.024" filterUnits="userSpaceOnUse" color-interpolation-filters="sRGB">
<feFlood flood-opacity="0" result="BackgroundImageFix"/>
<feColorMatrix in="SourceAlpha" type="matrix" values="0 0 0 0 0 0 0 0 0 0 0 0 0 0 0 0 0 0 127 0" result="hardAlpha"/>
<feOffset dy="4"/>
<feGaussianBlur stdDeviation="2"/>
<feComposite in2="hardAlpha" operator="out"/>
<feColorMatrix type="matrix" values="0 0 0 0 0 0 0 0 0 0 0 0 0 0 0 0 0 0 0.25 0"/>
<feBlend mode="normal" in2="BackgroundImageFix" result="effect1_dropShadow_31_1024"/>
<feBlend mode="normal" in="SourceGraphic" in2="effect1_dropShadow_31_1024" result="shape"/>
</filter>
</defs>
</svg>
